<svg xmlns="http://www.w3.org/2000/svg" viewBox="0 0 196.77 49.27"><defs><style>.cls-1{fill:#fff;}</style></defs><title>tkdwhitelogo</title><g id="Layer_2" data-name="Layer 2"><g id="Layer_1-2" data-name="Layer 1"><path class="cls-1" d="M0,0H19.14V4.81H12.45V22.32H6.62V4.81H0Z"/><path class="cls-1" d="M34.55,16.5a4.25,4.25,0,0,0,3.15,1.27,3.92,3.92,0,0,0,3-1.26,4.78,4.78,0,0,0,1.17-3.39V0h5.82V13.12a10.16,10.16,0,0,1-1.22,5.08A8.4,8.4,0,0,1,43,21.56a11.55,11.55,0,0,1-5.34,1.18,11.69,11.69,0,0,1-5.36-1.18,8.52,8.52,0,0,1-3.57-3.36,10,10,0,0,1-1.26-5.08V0h5.83V13.12A4.63,4.63,0,0,0,34.55,16.5Z"/><path class="cls-1" d="M71.49,22.32l-3.25-6.17H63.91v6.17H58.08V0h10A10.35,10.35,0,0,1,75,2.05a7.16,7.16,0,0,1,2.43,5.78,8.91,8.91,0,0,1-1,4.35,7,7,0,0,1-3,2.85l4.65,7.29ZM63.91,11.5h4.24a3.89,3.89,0,0,0,2.75-.9,3.31,3.31,0,0,0,1-2.58,3.2,3.2,0,0,0-1-2.5,4,4,0,0,0-2.75-.87H63.91Z"/><path class="cls-1" d="M102.76,0h5.42V22.32h-5.1L93,9V22.32H87.51V0h5.13l10.15,13.44Z"/><path class="cls-1" d="M140.37,22.32h-7l-5.86-8.66-2.8,3.12v5.54h-5.83V0h5.83V9.68L133.11,0h6.75l-8.28,9.2Z"/><path class="cls-1" d="M149.13,0h17.61V4.65H155V8.82h10.63v4.62l-10.63,0v4.2h12.1v4.65H149.13Z"/><path class="cls-1" d="M196.77,0l-8.06,15.19v7.13h-5.83v-7L174.67,0h5.82l5.29,9.59L190.94,0Z"/><path class="cls-1" d="M61.35,38.75a5.1,5.1,0,0,1,2.07,1.94,5.51,5.51,0,0,1,.73,2.86,5.61,5.61,0,0,1-.74,2.88,5.08,5.08,0,0,1-2.11,1.94,6.75,6.75,0,0,1-3.11.69H53.56v-11H58.3A6.5,6.5,0,0,1,61.35,38.75Zm-1.5,7.6a2.68,2.68,0,0,0,1-1.12,3.64,3.64,0,0,0,.36-1.65,3.45,3.45,0,0,0-.39-1.66,2.73,2.73,0,0,0-1.06-1.12,2.92,2.92,0,0,0-1.54-.4h-1.8v6.34h2A2.78,2.78,0,0,0,59.85,46.35Z"/><path class="cls-1" d="M70.29,38.06h2.88v11H70.29Z"/><path class="cls-1" d="M87.3,43.44h2.48v4.38a7.49,7.49,0,0,1-2.16,1,8.06,8.06,0,0,1-2.43.4,6,6,0,0,1-3-.75,5.57,5.57,0,0,1-2.12-2.05,5.66,5.66,0,0,1-.77-2.92,5.42,5.42,0,0,1,.8-2.89,5.5,5.5,0,0,1,2.18-2,6.54,6.54,0,0,1,3.1-.74,7.06,7.06,0,0,1,2.45.45,6.34,6.34,0,0,1,2.07,1.2l-1.63,2a4.83,4.83,0,0,0-1.37-.89,3.92,3.92,0,0,0-1.54-.33,3,3,0,0,0-1.58.42,3.12,3.12,0,0,0-1.12,1.16,3.64,3.64,0,0,0,0,3.32,3,3,0,0,0,1.13,1.17,3.08,3.08,0,0,0,1.61.43,4.35,4.35,0,0,0,1.9-.54Z"/><path class="cls-1" d="M96.39,38.06h2.87v11H96.39Z"/><path class="cls-1" d="M105.15,38.06h9.43v2.37h-3.29v8.63h-2.88V40.43h-3.26Z"/><path class="cls-1" d="M127.36,49.06l-.75-1.94h-4.76l-.77,1.94h-3l4.73-11h3l4.62,11Zm-4.64-4.14h3L124.25,41Z"/><path class="cls-1" d="M136.12,38.06H139v8.55h4.66v2.45h-7.54Z"/></g></g></svg>